<?xml version="1.0" encoding="utf-8"?>
<!-- Generator: Adobe Illustrator 24.0.0, SVG Export Plug-In . SVG Version: 6.00 Build 0)  -->
<svg version="1.1" id="_x39_384b02b-49b7-431a-934f-218f90990cfd"
	 xmlns="http://www.w3.org/2000/svg" xmlns:xlink="http://www.w3.org/1999/xlink" x="0px" y="0px" viewBox="0 0 941.5 824.8"
	 style="enable-background:new 0 0 941.5 824.8;" xml:space="preserve">
<style type="text/css">
	.st0{opacity:0.5;fill:#EDEAD0;enable-background:new    ;}
	.st1{opacity:0.1;fill:#1AE859;enable-background:new    ;}
	.st2{opacity:0.1;fill:#1C3ED3;enable-background:new    ;}
	.st3{fill:url(#SVGID_1_);}
	.st4{fill:#65617D;}
	.st5{opacity:0.1;enable-background:new    ;}
	.st6{fill:#FBBEBE;}
	.st7{fill:#3A3768;}
	.st8{fill:#1C3ED3;}
	.st9{fill:#E6E8EC;}
	.st10{fill:#3F3D56;}
	.st11{fill:none;stroke:#00FFFF;stroke-miterlimit:10;}
</style>
<title>businesswoman</title>
<ellipse transform="matrix(0.1368 -0.9906 0.9906 0.1368 -448.8243 1006.0876)" class="st0" cx="352.8" cy="760.6" rx="42.4" ry="356.1"/>
<path class="st1" d="M20.4,568.9c6.4,15.5,14.8,30.3,26.6,41.6c14.3,13.8,32.1,21.4,51.2,25c5.6,1,11.3,1.8,17,2.2
	c15.1,1.2,30.5,0.4,45.3-1.2c36.3-4,72-11.6,106.7-22.8c5.7-1.8,11.4-3.8,17-5.8c8.5-3,16.9-6.3,25.3-9.8
	c34-14.2,69.1-32.3,105.3-26.7c17.5,2.7,34,11,51.6,13.5c12.3,1.6,24.9,0.7,36.8-2.6c5.8-1.6,11.5-3.5,17-5.9
	c12.4-5.4,24.3-12.1,35.3-20c26.5-18.5,50.3-41.5,78.2-57.5c30.8-17.7,64.8-26.1,99.5-32.4c5.7-1,11.3-2,17-2.9
	c16-2.6,32.1-5.1,48-8c15.3-2.8,30.8-6.3,44.1-14.8c9.5-6,17.5-14.4,24.8-23.3c13.5-16.4,25.1-34.2,34.5-53.2c0.5-1,1-2,1.5-3
	c14.7-30.1,24.6-63,30.6-97c0.2-1,0.3-2,0.5-3c5.7-33.3,7.8-67.8,7.2-102l-0.1-3c-0.4-16.9-1.4-33.7-3-50.3
	c-1.1-11.7-2.6-23.8-8.7-33.6s-15.9-16.1-25.7-21.3C860.6,28,819.1,21.6,772.5,32.8c-7.5,1.8-14.9,3.7-22.4,5.7
	c-5.7,1.5-11.3,3.1-17,4.7C694,54.1,655,65.7,614.6,69.1c-3.9,0.3-7.8,0.6-11.7,0.8c-7.7,0.4-15.5,0.4-23.2,0.2
	c-19.9-0.6-39.8-2.6-59.4-6.1c-5.7-1-11.3-2.1-17-3.3c-24.4-5.1-48.6-11.9-72.4-19.4c-4.9-1.5-9.7-3.1-14.6-4.7
	c-10.9-3.6-21.8-7.2-32.8-10.8c-32.7-10.6-65.5-20.3-99.3-24.2c-2.9-0.3-5.8-0.6-8.7-0.9c-2.8-0.2-5.5-0.4-8.3-0.6
	c-52.5-2.8-105.5,9.8-152,35.7c-5.8,3.2-11.4,6.6-17,10.2c-7.7,5-15.2,10.4-22.4,16.2C60.9,74.4,47,87.9,36.4,104.1
	c-10.3,15.8-17,33.5-20.9,52.2c-0.2,1-0.4,2-0.6,3c-5.6,30.1-3.9,62.4,2.4,92.5c0.7,3.2,1.4,6.3,2.1,9.5c0.2,1,0.5,2,0.7,3
	c6.8,28.5,15.6,56.9,13.3,86.1c-0.3,3.7-0.8,7.3-1.4,10.9c-0.2,1-0.3,2-0.5,3c-4.5,23.8-14.6,46.3-20.7,69.9
	C-0.4,478.9,2.9,526.1,20.4,568.9z"/>
<path class="st2" d="M98.2,261.3H19.6c0.2,1,0.5,2,0.7,3h77.9v97H32.2c-0.2,1-0.3,2-0.5,3h66.5v271.2c5.6,1,11.3,1.8,17,2.2V364.3
	h152v249.4c5.7-1.8,11.4-3.8,17-5.8V364.3h219v217.9c5.8-1.6,11.5-3.5,17-5.9v-212h213v102.1c5.7-1,11.3-2,17-2.9v-99.2h151.5
	c0.5-1,1-2,1.5-3H750.2v-97h183.6c0.2-1,0.3-2,0.5-3H750.2v-102h191.2l-0.1-3H750.2V38.5c-5.7,1.5-11.3,3.1-17,4.7v113.1h-208
	l-0.5-0.6l78.2-85.8c-7.7,0.4-15.5,0.4-23.2,0.2l-59.4,65.2V64c-5.7-1-11.3-2.1-17-3.3v71.3l-86.9-95.4
	c-10.9-3.6-21.8-7.2-32.8-10.8l118.2,129.7l-0.5,0.6h-217V1.8c-2.9-0.3-5.8-0.6-8.7-0.9c-2.8-0.2-5.5-0.4-8.3-0.6v155.9h-152V36.1
	c-5.8,3.2-11.4,6.6-17,10.2v109.9H15.6c-0.2,1-0.4,2-0.6,3h83.2V261.3z M267.2,159.3v102h-152v-102H267.2z M284.2,159.3h219v102
	h-219L284.2,159.3z M733.2,261.3h-213V162l3-2.7h210V261.3z M520.2,361.3v-97h213v97H520.2z M284.2,361.3v-97h219v97H284.2z
	 M115.2,264.3h152v97h-152V264.3z"/>
<path class="st2" d="M188.3,89h1.3c-0.9-0.5-1.5-1.5-1.6-2.6l0,0c0-2.1,2.5-3.8,5.6-3.8H233c3.1,0,5.6,1.7,5.6,3.8l0,0
	c0,2.1-2.5,3.8-5.6,3.8h-1.3c0.9,0.6,1.5,1.5,1.6,2.6c0,1.8-1.8,3.3-4.3,3.6h11.4c3.1,0,5.6,1.7,5.6,3.8s-2.5,3.8-5.6,3.8h-39.4
	c-3.1,0-5.6-1.7-5.6-3.8c0-1.8,1.8-3.2,4.3-3.6h-11.3c-3.1,0-5.6-1.7-5.6-3.8S185.1,89,188.3,89z"/>
<path class="st2" d="M615.4,124.8h1.3c-0.9-0.6-1.5-1.5-1.6-2.6l0,0c0-2.1,2.5-3.8,5.6-3.8h39.4c3.1,0,5.6,1.7,5.6,3.8l0,0
	c0,2.1-2.5,3.8-5.6,3.8h-1.3c0.9,0.6,1.5,1.5,1.6,2.6c0,1.8-1.8,3.3-4.3,3.6h11.3c3.1,0,5.6,1.7,5.6,3.8s-2.5,3.8-5.6,3.8h-39.4
	c-3.1,0-5.6-1.7-5.6-3.8c0-1.8,1.8-3.3,4.3-3.6h-11.3c-3.1,0-5.6-1.7-5.6-3.8C609.8,126.5,612.3,124.8,615.4,124.8z"/>
<path class="st2" d="M127.8,277.9h1.3c-0.9-0.5-1.5-1.5-1.6-2.6l0,0c0-2.1,2.5-3.8,5.6-3.8h39.4c3.1,0,5.6,1.7,5.6,3.8l0,0
	c0,2.1-2.5,3.8-5.6,3.8h-1.3c0.9,0.5,1.5,1.5,1.6,2.6c0,1.8-1.8,3.3-4.3,3.6h11.3c3.1,0,5.6,1.7,5.6,3.8s-2.5,3.8-5.6,3.8h-39.4
	c-3.1,0-5.6-1.7-5.6-3.8c0-1.8,1.8-3.3,4.3-3.6h-11.4c-3.1,0-5.6-1.7-5.6-3.8S124.8,277.9,127.8,277.9z"/>
<linearGradient id="SVGID_1_" gradientUnits="userSpaceOnUse" x1="541.4282" y1="5.454" x2="541.4282" y2="656.6077" gradientTransform="matrix(1 0 0 -1 -129.25 785.686)">
	<stop  offset="0" style="stop-color:#808080;stop-opacity:0.25"/>
	<stop  offset="0.54" style="stop-color:#808080;stop-opacity:0.12"/>
	<stop  offset="1" style="stop-color:#808080;stop-opacity:0.1"/>
</linearGradient>
<path class="st3" d="M328.4,477.1c2.9,0,5.7-0.3,8.6-0.9c0,0,1-21.1,3.9-29.5l8.6-42.7c0,0,5.2-18.2,7.1-28.2s10.5-48.3,10.5-48.3
	c1.4-4.2,2,7.1,2,7.1s2.8,2.9,2.2,4.4s0.5,10.1,0.5,10.1s1.5,5.1,0.4,6.2c-0.2,0.3-0.4,0.6-0.5,0.9c-1,2.3-2.3,9.4-2.3,9.4l-3.8,14
	l-0.6,0.5c-2.4,2.1-4.3,4.8-5.5,7.8c-1.2,2.8-1.9,5.5-2.6,7.1c-0.1,0.3-0.3,0.5-0.5,0.7c-0.4,0.5-0.7,1.1-1,1.8
	c-0.9,2.2-1.5,4.5-1.9,6.9l0.5,0.3c0,0.1-0.1,0.2-0.1,0.3l-0.2,0.5v0.1c-0.4,1-0.8,2-1.2,3.1l-0.1,0.3c-0.4,1-0.7,2-1,3
	c0,0.2-0.1,0.3-0.2,0.5c-0.3,0.9-0.6,1.9-0.9,2.8l-0.2,0.6c-0.3,0.9-0.5,1.7-0.8,2.6c0,0.1-0.1,0.2-0.1,0.3
	c-2.1,7.2-3.1,14.6-3.2,22.1c-0.2,17.7-0.4,53.3,1.8,58.1c0.1,0.3,0.3,0.7,0.4,1.1c2.7,7.9,4.8,31.8,4.8,31.8c1.4,1,2.9,1.9,4.5,2.7
	c0,0.5,0.1,0.9,0.2,1.4c1.1,9.8,2.8,23.1,3.3,24.4c0.9,2.2,2.8,15,2.8,15s-1.5,5.8-2.6,11.2s-15.1,20.2-15.1,20.2
	c-17.9,14.8-35.8,67.3-35.8,67.3c-3.6,7.7-7.5,10.5-10.4,11.5c-19.3-0.7-20.2,15-20.2,15l-12.2,23.4l3.1,2.2l1.5,1l12.4-14.4
	c0,0,0,16.4-2.3,20.4c-1.5,2.7-1.8,7.7-1.8,10.5c0,1.4,0.1,2.3,0.1,2.3s3.8,8,20.4,17.9c7.5,4.4,11.8,3.7,14.3,1.5
	c3.1-2.7,3.5-7.5,3.5-7.5l-7-11.9c-0.4,0.2-0.7,0.3-1,0.4c0-0.4,0-0.8,0-1.3c0.4-10.5,9.9-32.7,9.9-32.7s9.1-23.8,16.6-31.2
	c6.6-6.4,33-46.6,39.7-56.7v0.3c0,0.5,0.1,1,0.1,1.4c1,10.9,4,15.7,4,15.7s3.5,44,4.1,55.2c0.4,7-1.3,11.7-2.6,14.3l-0.1,0.1
	c-0.1,0-6.9,3.6-7.5,10.5s3.2,13.5,3.2,13.5s8.8,22,8.5,28.3h5.2l-0.9-19.1l0.1,0.1c0.9,1.3,10.2,13.7,10.5,19.9
	c0,0,2.3,6.4,2.3,8.1c0,0,0,0.1,0,0.1c-0.2,1.5,8.2,8.6,20.4,7.2s14.3-3.1,14.3-3.1s0.1-0.4,0.3-1c0.6-2.3,1.6-7.9-2.5-10.7
	c-5.1-3.5-15.6-13.2-16.1-13.6l0,0c-1.7-14.4-7.2-33.9-7.2-33.9v-29.5c0,0,2.5-67.5,0.8-78.8c-1.1-6.5-1.1-13.1,0-19.5
	c0,0,7.5-21.3,6-23.6s3.2-10.7,3.2-10.7L432,530l0.5-1.5l0,0c1.5-0.6,2.5-0.9,2.8-1c3-0.6,0-5.5,0-5.5s9.6-40.9,8.6-48.3
	s2.3-37.9,2.3-37.9l1.5-12.6l0.1-1.1c1,1.2,1.7,2,1.7,2c10.3-1.7,19.2-30,16.9-31.6s-8.6-22.2-8.6-22.2c-10.1-14.1-1-43.3-1-43.3
	s9.3-23.5,9.2-27.4s2.2-4,2.2-4v-0.1c8.5,1.8,38.1,8.1,39.6,8.4c1.8,0.4,5.3,0.6,8.9,2s26.5-2,26.5-2s14.6-1.3,13.6-7.6
	c-1-6.3-7.3-17.8-7.3-17.8l-9.1-15.4c0,0-3.6-4.2-3.2-5.6s-4.2-3.6-4.2-3.6s-2.6-3.4-2.8-5s-14.7-13.9-14.7-13.9s-5-4.2-3.9-18.4
	h-11.5c-2.9,0.1-5.9,0.4-8.8,0.9l-16.8-19.6c0,0-13.2-10.9-24.9-17.4c0,0,0,0,0,0c0.1-7.4-2.2-14.6-6.4-20.7l-0.1-0.2
	c1.9-0.5,3.6-1.3,5.2-2.4c1-0.7,1.8-1.7,2.3-2.9c1.9-4.8-5.5-7-8.9-8.7c-6.8-3.5-12.5-8.8-19.5-12c-14.1-6.5-30.3-6.4-44.3,0.3
	c-6.8,3.4-12.7,8.2-18.9,12.7c-9.6,7-5.9,13.4-13.4,22.7s-11.7,22.2-7,33.1c2.8,6.4,8.3,11.3,14.3,14.9s-1.3,5.9,5.1,8.6
	c1.5,0.6,3.2,1.4,3.8,3c0.4,1.3,0.3,2.7-0.2,3.9c-1.2,4.3-2.8,8.8-1.9,13c-4,1.9-6.8,2.9-6.8,2.9c-8.3,2.9-9.7,8.8-9.7,8.8
	s1.5,5.2-1.8,7.8s-1.9,9.7-1.9,9.7s-4.5,10.2-3.4,11.7c0.9,1.3,1.7,2.7,2.4,4.1c0,0-3.8,3-1.8,7.3s0,8.9,0,8.9s1,2.4-0.8,3.7
	s0,11.1,0,11.1c0,1.3-0.5,2.6-1.4,3.6c-1.5,1.7,0,18.5,0,18.5c-0.4,0.8-1,1.6-1.8,2.1c-1,0.5-3.9,16.3-3.1,17.1
	s-12.2,38.8-12.2,38.8s0.3,6.6-1.5,7.7s-2.1,8.7-2.1,8.7s0.8,6.8-2.4,8s-3.9,24.2-3.9,24.2s-4.4,11.8-7,13.7c2.6,3.2,5.9,6,9.5,8
	l-0.4,1.1c-2.2,6-5.2,15.3-5.6,23 M429.4,220.6c0-0.1,0-0.2,0-0.3C429.4,220.4,429.4,220.5,429.4,220.6z M429.4,220
	c0,0.1,0,0.2,0,0.2C429.4,220.2,429.4,220.1,429.4,220L429.4,220z M491.5,264.2c0,0-1.5-4.5-2.4-4.5c-1.2-0.3-2.4-0.7-3.6-1.3
	c-1.5,0.4-3.1-0.5-3.5-2c0-0.1,0-0.1,0-0.2c-1-3-7.2-5.4-7.2-5.4s-9.1-3.8-9.8-6.9s-13.7-6.5-13.7-6.5s0.9-1.3-4.6-3.1
	c-1.9-0.8-3.7-1.9-5.3-3.3c-4.2-3.4-8.2-7.1-11.9-11c0.1-2.3,0.5-4.7,1.2-6.9c0.1-0.5,0.3-1,0.5-1.5c2.6-1.3,5-2.9,7.1-4.8l6.7,9.8
	c0.7,1,2.1,1.3,3.1,0.6l5.4-3.6c2.9,1.1,5.9,1.6,9,1.3l11.9,14.4c-0.2,1.6,0,3.3,0.5,4.8l27.7,32.9
	C501.8,266.8,491.5,264.2,491.5,264.2L491.5,264.2z"/>
<path class="st4" d="M497,217.1c0,0-30.5,0.3-25.3,17.2l11.7,6.8l11.6-2.4l5.5-9.6L497,217.1z"/>
<path class="st5" d="M497,217.1c0,0-30.5,0.3-25.3,17.2l11.7,6.8l11.6-2.4l5.5-9.6L497,217.1z"/>
<path class="st6" d="M430.5,187.6c8.4,30.4,28.8,27.5,28.8,27.5l13.1,15.9l1.9,2.5l4.2,5.3l18.5-10.5l-3.7-4.3l-21.6-25.4
	C471.6,198.4,422.1,157.2,430.5,187.6z"/>
<path class="st7" d="M429,198L429,198c-0.1,0.1-0.3,0.1-0.4-0.1l-2.3-3.4c-0.1-0.1-0.1-0.3,0.1-0.4l0,0c0.1-0.1,0.3-0.1,0.4,0.1
	l2.3,3.4C429.2,197.8,429.1,197.9,429,198z"/>
<path class="st7" d="M440.7,181.8L440.7,181.8c-0.1,0.1-0.2,0-0.2,0l-0.7-1c0-0.1,0-0.2,0-0.2l0,0c0.1,0,0.2,0,0.2,0l0.7,1
	C440.8,181.6,440.8,181.7,440.7,181.8z"/>
<path class="st7" d="M444.7,188.6L444.7,188.6c-0.1,0.1-0.2,0-0.3,0l-1.3-1.9c-0.1-0.1,0-0.2,0-0.3l0,0c0.1-0.1,0.2,0,0.3,0l1.3,1.9
	C444.8,188.4,444.8,188.6,444.7,188.6z"/>
<path class="st7" d="M445,188L445,188c-0.1,0.1-0.2,0-0.2,0l-1.3-1.9c-0.1-0.1,0-0.2,0-0.2l0,0c0.1-0.1,0.2,0,0.2,0l1.3,1.9
	C445.1,187.8,445.1,188,445,188z"/>
<path class="st7" d="M456.8,209.2l-11.9,8.1c-1,0.7-2.4,0.4-3.1-0.6l-19.2-27.9c-0.7-1-0.4-2.4,0.6-3.1l11.9-8.1
	c1-0.7,2.4-0.4,3.1,0.6l19.2,27.9C458.1,207.2,457.8,208.5,456.8,209.2z"/>
<path class="st8" d="M425.4,185.5c0.3-0.2,0.7-0.1,0.9,0.2l0.1,0.1c0.2,0.3,0.6,0.4,0.9,0.2l6.6-4.5c0.3-0.2,0.4-0.6,0.2-0.9
	l-0.1-0.1c-0.2-0.3-0.1-0.7,0.2-0.9l1.3-0.9c0.6-0.4,1.4-0.2,1.8,0.3l19.1,27.9c0.4,0.6,0.2,1.4-0.3,1.8l-11.5,7.9
	c-0.6,0.4-1.4,0.2-1.8-0.3l-19.1-27.9c-0.4-0.6-0.2-1.4,0.3-1.8L425.4,185.5z"/>
<path class="st9" d="M431.4,182.2l-1.7,1.2c-0.1,0.1-0.3,0.1-0.4-0.1h0c-0.1-0.1-0.1-0.3,0.1-0.4l1.7-1.2c0.1-0.1,0.3-0.1,0.4,0.1
	l0,0C431.6,181.9,431.6,182.1,431.4,182.2z"/>
<circle class="st9" cx="428.8" cy="183.7" r="0.3"/>
<path class="st6" d="M374,624.5c0,0.6,0.1,1.2,0.1,1.8c1,10.9,4,15.7,4,15.7s3.4,44,4.1,55.2c0.4,7-1.3,11.7-2.6,14.3
	c-0.4,0.8-0.9,1.6-1.4,2.3l-2.1,4.7l10.1,20.2l11.8,19.5l8.2,10.7c0,0,6,0.9,7.3,0s6.4,0,6.4,0l4.7-7.3l-5.3-7.2l-2-2.7
	c-1.7-14.4-7.2-33.9-7.2-33.9v-29.4c0,0,2.5-67.4,0.8-78.8c-1.1-6.5-1.1-13.1,0-19.5c0,0,7.5-21.3,6-23.6s3.2-10.7,3.2-10.7l9-25.4
	l0.5-1.5l-2-4.9l-50.7-6.4c0,0,0.4,4,0.8,10.3v0.1c0.3,3.7,0.5,8.2,0.7,13.2c0.7,16.8,0.8,39.4-2.4,56.7
	C374.2,606.5,373.6,615.5,374,624.5z"/>
<path class="st5" d="M374.2,626.2l2.7-4.1c4.9-4.8,10.4-8.9,16.3-12.5c9.2-5.4,11.4-18,11-19.8s1.3-18,1.3-18v-41.3l-27.7-3
	c1.1,16.1,2.5,47.5-1.7,70C373.8,609.9,373.6,619.3,374.2,626.2z"/>
<path class="st6" d="M287.8,729.3l2.1,19.8l10.5,6.2c0,0,9.7,1.1,8-7.5c-0.2-0.9-0.2-1.9-0.2-2.8c0.4-10.5,9.8-32.6,9.8-32.6
	s9-23.8,16.5-31.1c6.6-6.4,32.9-46.6,39.5-56.7l1.5-2.3c4.9-4.8,10.4-8.9,16.3-12.5c9.2-5.4,11.4-18,11-19.8s1.3-18,1.3-18v-41.3
	l-26.4-2.8l-23.8-2.5c0,0,0.5,4.7,1.2,10.6c1.1,9.8,2.8,23.1,3.3,24.4c0.9,2.2,2.8,15,2.8,15s-1.5,5.8-2.6,11.2s-15,20.2-15,20.2
	c-17.8,14.8-35.6,67.2-35.6,67.2c-4.7,10.1-10,11.9-12.8,12c-0.6,0-1.2,0-1.8-0.2l-3.9,7.1L287.8,729.3z"/>
<path class="st5" d="M376,718.3l10.1,20.2l11.8,19.5l8.2,10.7c0,0,6,0.9,7.3,0s6.4,0,6.4,0l4.7-7.3l-5.3-7.2
	c1.4,3.2,2.5,7.2-0.3,7.4c-4.7,0.3-14.5,4.3-20.1-9.1s-13-19.4-13-19.4l-5.9-14.4l-0.4-7.4c-0.4,0.8-0.9,1.6-1.4,2.3L376,718.3z"/>
<path class="st10" d="M375.2,735.5c0,0,8.8,21.9,8.5,28.2h5.2l-0.9-19.1l0.1,0.1c0.9,1.3,10.1,13.7,10.5,19.9c0,0,2.3,6.4,2.3,8.1
	c0,0,0,0.1,0,0.1c-0.2,1.5,8.2,8.6,20.3,7.2s14.3-3.1,14.3-3.1s0.1-0.4,0.3-1c0.6-2.3,1.6-7.9-2.5-10.7c-5-3.5-15.6-13.2-16-13.6
	c0.3,0.5,6.3,11,1.7,11.3s-14.5,4.3-20.1-9.1s-13-19.4-13-19.4l-5.9-14.4l-0.4-8.6c0,0-6.9,3.5-7.5,10.5S375.2,735.5,375.2,735.5z"
	/>
<path class="st5" d="M382.6,744.3c0.6,5.1,2.1,14.6,2.9,19.4h3.3l-0.9-19.1l0.1,0.1l-0.3-0.8C387.8,743.9,381.8,737.2,382.6,744.3z"
	/>
<path class="st5" d="M400.8,772.9c-0.2,1.5,8.2,8.6,20.3,7.2s14.3-3.1,14.3-3.1s0.1-0.4,0.3-1c-7.6,0.1-27.7,0-34.9-3.2
	C400.8,772.8,400.8,772.8,400.8,772.9z"/>
<path class="st5" d="M287.8,729.3l2.1,19.8l10.5,6.2c0,0,9.7,1.1,8-7.5c-0.2-0.9-0.2-1.9-0.2-2.8c-16.2,6-17.9-9.9-17.9-9.9
	l2.9-43.3c0-2.1,0.6-4.2,1.9-6c-0.6,0-1.2,0-1.8-0.2l-3.9,7.1L287.8,729.3z"/>
<path class="st10" d="M265.3,723.8l3.1,2.2l1.4,1l12.4-14.4c0,0,0,16.4-2.3,20.4c-1.5,2.7-1.8,7.7-1.8,10.5c0,1.4,0,2.3,0,2.3
	s3.8,8,20.3,17.9c7.4,4.4,11.8,3.7,14.3,1.5c3.1-2.7,3.5-7.5,3.5-7.5l-7-11.9c-17.2,7-18.9-9.5-18.9-9.5l2.9-43.3
	c0.2-6.5,4.4-7.7,4.4-7.7c-19.3-0.7-20.1,15-20.1,15L265.3,723.8z"/>
<polygon class="st5" points="268.4,726 269.8,727 282.2,712.6 280.8,708.5 "/>
<path class="st5" d="M278.1,743.6c0,1.4,0,2.3,0,2.3s3.8,8,20.3,17.9c7.4,4.4,11.8,3.7,14.3,1.5
	C305.2,762.9,287.3,756.3,278.1,743.6z"/>
<path class="st6" d="M307.8,509.3c9.5,3.3,15.3-17.4,18-30.8c1.3-6.3,1.9-11,1.9-11H310c0,0-1,2.4-2.4,6
	C303.8,484.1,297.3,505.7,307.8,509.3z"/>
<path class="st6" d="M385.4,230.5l12,29.2v25.1c0,0.6,29.8,9,29.8,9l7.7-19.3c0,0,2.4-22.8-6.2-41.7c-2.7-6.2-3.1-13.1-1.2-19.6
	c0.1-0.5,0.3-1,0.5-1.5c2.1-6.1,5.3-11.7,9.5-16.5c0,0-20.5-6.8-34.5-8.2c-8.8-0.9-15.2,0.4-12.3,6.9c1.8,4.1,2.6,8.5,2.3,13
	c0,0.4,0,0.8-0.1,1.2C392.1,220.3,385.4,230.5,385.4,230.5z"/>
<path class="st5" d="M390.8,194c1.8,4.1,2.6,8.5,2.3,13c0,0.4,0,0.8-0.1,1.2c0,0,0,0.1,0.1,0.1c5.1,4.5,11.4,7.3,18.2,7.9
	c0.9,0.1,1.9,0.1,2.8,0.1c4.7,0,9.3-1,13.5-3c0.1-0.5,0.3-1,0.5-1.5c2.1-6.1,5.3-11.7,9.5-16.5c0,0-20.5-6.8-34.5-8.2
	C394.2,186.3,387.9,187.6,390.8,194z"/>
<path class="st6" d="M381.4,180.7c-0.1,10,4.2,19.6,11.7,26.3c5.1,4.5,11.5,7.3,18.2,7.9c0.9,0.1,1.9,0.1,2.8,0.1
	c4.8,0,9.6-1.1,13.9-3.2c11.7-6,19-18,18.8-31.1c0-7.3-2.2-14.4-6.4-20.4c-6-8.7-15.8-13.9-26.4-14
	C396.1,146.4,381.4,161.7,381.4,180.7z"/>
<path class="st8" d="M426.2,291.7c0,0-20-18.3-25.5-34.8c-3.5-10.3-8-20.3-13.3-29.8l1.5-3.1c0,0,8.2,21.8,14.2,24.3
	s20,17.4,21.3,27.7l0.9-31.4l1.3-20.7c0,0,10.2,21.8,11.1,31.9s-0.2,28.3-3.4,32.2C432.2,290.4,429.3,291.7,426.2,291.7z"/>
<path class="st11" d="M384.4,223.4l0.1-0.1L384.4,223.4z"/>
<path class="st5" d="M353.9,525.3c0,0,0.5,4.7,1.2,10.6c7.1,3.6,15.1,5,23.3,5.1c8.7,0,17.3-1,25.7-3.1c8.5-2,16.8-4.6,24.9-7.8
	l0.5-1.5l-2-4.9l-50.7-6.4c0,0,0.4,4,0.8,10.3v0.1L353.9,525.3z"/>
<path class="st10" d="M345.3,499c0.1,0.3,0.3,0.7,0.4,1.1c2.7,7.9,4.7,31.7,4.7,31.7c28.3,19.7,78.9-3.5,81.9-4.2s0-5.5,0-5.5
	s9.6-40.9,8.6-48.3s2.3-37.8,2.3-37.8l1.6-12.6l4.3-35.9l-32.8-7.1c0,0-40.2,4.1-53,8.9c-0.6,0.2-1.2,0.5-1.8,0.7
	c-3.9,1.9-7.4,8.4-10.3,15.5c-1.7,4.4-3.2,9-4.4,13.2c-2,7.2-3.1,14.6-3.2,22.1C343.3,458.6,343.1,494.2,345.3,499z"/>
<path class="st5" d="M345.3,499c0.1,0.3,0.3,0.7,0.4,1.1c1.8-12.7,3.6-51.1,3.2-63.7c-0.4-15,15.5-46.8,15.5-46.8l-1.3-0.3
	c-0.6,0.2-1.2,0.5-1.8,0.7c-6.3,3.1-11.5,17.8-14.6,28.7c-2,7.2-3.1,14.6-3.2,22.1C343.3,458.6,343.1,494.2,345.3,499z"/>
<path class="st5" d="M351.1,405.6c0.8,0.5,17.4,11.2,45.4,23.2c28.7,12.2,31.8-37.5,31.8-37.5c2.5,4.3,4.3,9,5.5,13.8
	c1.6,6.4,7.8,14.5,11,18.3l4.3-35.9l-32.8-7.1c0,0-40.2,4.1-53,8.9c-0.6,0.2-1.2,0.5-1.8,0.7C357.5,392,354,398.4,351.1,405.6z"/>
<path class="st4" d="M334.5,298.4c1.9,4.3,0,8.9,0,8.9s28.5,24.6,29.9,20.4s2,7.1,2,7.1s2.8,2.9,2.2,4.4s0.5,10.1,0.5,10.1
	s1.5,5.1,0.4,6.2s-2.7,10-2.7,10l-3.8,14.3l-0.7,0.6c-6,4.9-6.8,13.5-8.5,15.7s-2.8,8.4-2.8,8.4s16.7,11,45.4,23.2
	s31.8-37.5,31.8-37.5c2.5,4.3,4.4,9,5.5,13.8c2.2,8.6,12.8,20.4,12.8,20.4c10.3-1.7,19.1-30,16.8-31.6s-8.6-22.2-8.6-22.2
	c-10.1-14.1-1-43.3-1-43.3s9.2-23.5,9.1-27.4s2.2-4,2.2-4l6.5-44.9c0,0-9-3.8-9.8-6.9s-13.6-6.5-13.6-6.5s0.9-1.3-4.6-3.1
	c-1.9-0.8-3.7-1.9-5.3-3.2c-4.2-3.4-8.1-7.1-11.8-11c0,0-0.5,12.8,2.1,20.2s4.6,29.2,4.8,30.8s-7.7,18.5-7.7,18.5l-4.2-5.8
	c-6.6-9.1-18.9-25.8-19.7-26.5c-1.2-1.1-11.5-29.8-12.9-33.4c-0.5-1.3-1.3-1.7-2-1.7c-0.6,0-1.1,0.2-1.6,0.5l0,0
	c-0.3,0.2-0.5,0.3-0.7,0.5l-0.3,0.7l-0.1,0.1c-0.2,0.6-0.5,1.2-0.8,1.7l0,0l0,0c-6.9,13.5-32.6,23.2-32.6,23.2
	c-8.3,2.9-9.7,8.8-9.7,8.8s1.5,5.2-1.8,7.8s-1.9,9.7-1.9,9.7s-4.5,10.2-3.4,11.7c0.9,1.3,1.7,2.7,2.4,4.1
	C336.4,291.1,332.6,294.1,334.5,298.4z"/>
<path class="st5" d="M418,304.3c0,0,43.9,6.9,41.9-12c-1.9-17.2-18-53.4-20.9-59.7c-4.2-3.4-8.1-7.1-11.9-11c0,0-0.5,12.8,2.1,20.2
	s4.6,29.2,4.8,30.8s-7.7,18.5-7.7,18.5L418,304.3z"/>
<path class="st5" d="M416.7,303c0,0,43.9,6.9,41.9-12c-1.9-17.2-18-53.4-20.9-59.7c-4.2-3.4-8.1-7.1-11.8-11c0,0-0.5,12.8,2.1,20.2
	s4.6,29.2,4.8,30.8s-7.7,18.5-7.7,18.5L416.7,303z"/>
<path class="st4" d="M417.3,303c0,0,43.9,6.9,41.9-12c-1.8-17.2-18-53.4-20.9-59.7c-4.2-3.4-8.1-7.1-11.8-11c0,0-0.5,12.8,2.1,20.2
	s4.6,29.2,4.8,30.8s-7.7,18.5-7.7,18.5L417.3,303z"/>
<path class="st5" d="M382.1,227.2L382.1,227.2c0,0.1,0.1,2,0.2,4.9c0.2,5.6,0.4,15,0.6,23.9c0.2,10.3,0.2,19.8-0.3,21.4
	c-1.2,3.8,4.6,13.1,4.6,13.1l28.9,13.8l7.8-12.4l-3.6-6.7c-6.6-9.1-18.9-25.8-19.7-26.5c-0.4-0.3-1.7-3.5-3.3-7.8
	c-3.5-9.1-8.6-23.1-9.6-25.6c-0.4-0.8-1.1-1.4-2-1.8c-0.6-0.1-1.2,0.1-1.6,0.5l0,0c-0.4,0.4-0.7,0.8-1,1.3v0
	C382.7,226,382.4,226.6,382.1,227.2L382.1,227.2z"/>
<path class="st5" d="M384.1,225.9L384.1,225.9c0,0.1,0.1,2,0.2,4.9c0.2,5.6,0.4,15,0.6,23.9c0.2,10.3,0.2,19.8-0.3,21.4
	c-1.2,3.8,4.6,13.1,4.6,13.1L418,303l7.8-12.3l-3.6-6.7c-6.6-9.1-18.9-25.8-19.7-26.5c-0.4-0.3-1.7-3.5-3.3-7.8
	c-3.5-9.1-8.6-23.1-9.6-25.6c-0.4-0.8-1.1-1.4-2-1.7c-0.6-0.1-1.2,0.1-1.6,0.5l0,0c-0.4,0.4-0.7,0.9-1,1.4l0,0
	C384.6,224.7,384.4,225.2,384.1,225.9L384.1,225.9z"/>
<path class="st4" d="M383.4,225.9L383.4,225.9c0,0.1,0.1,2,0.2,4.9c0.2,5.6,0.4,15,0.6,23.9c0.2,10.3,0.2,19.8-0.3,21.4
	c-1.2,3.8,4.6,13.1,4.6,13.1l28.9,13.9l7.8-12.4c0,0-1.4-2.6-3.6-6.7c-6.6-9.1-18.9-25.8-19.7-26.5c-0.4-0.3-1.7-3.5-3.3-7.8
	c-3.5-9.1-8.6-23.1-9.6-25.6c-0.4-0.8-1.1-1.4-2-1.7c-0.6-0.1-1.2,0.1-1.6,0.5l0,0c-0.4,0.4-0.7,0.8-1,1.4l0,0
	C383.9,224.7,383.7,225.2,383.4,225.9L383.4,225.9z"/>
<ellipse class="st5" cx="421.3" cy="309.3" rx="2.4" ry="4.2"/>
<ellipse class="st8" cx="421.3" cy="308.7" rx="2.4" ry="4.2"/>
<ellipse class="st5" cx="427.5" cy="354.3" rx="2.4" ry="4.2"/>
<ellipse class="st5" cx="425.1" cy="330.5" rx="2.4" ry="4.2"/>
<ellipse class="st5" cx="429.9" cy="374.2" rx="2.4" ry="4.2"/>
<ellipse class="st8" cx="427.5" cy="353.6" rx="2.4" ry="4.2"/>
<ellipse class="st8" cx="425.1" cy="329.8" rx="2.4" ry="4.2"/>
<ellipse class="st8" cx="429.9" cy="373.6" rx="2.4" ry="4.2"/>
<path class="st8" d="M377.8,256.4c0.6-0.5,3.5-1.1,6.4-1.7s5.7-1,5.7-1c2.4-2.1,5.4-3.5,8.5-4c-3.5-9.1-8.6-23.1-9.6-25.6
	c-0.4-0.8-1.1-1.4-2-1.7c-0.6-0.1-1.2,0.1-1.6,0.5l0,0c-0.4,0.4-0.7,0.8-1,1.4l0,0l-0.6,6.6l-0.2,1.8c0,0-4.7,2.3-3.7,6
	S376.5,257.3,377.8,256.4z"/>
<path class="st5" d="M426.5,224.7c0,0,15.9,22.8,15.7,27.3s-2.6,0-2.6,0s-6.7-19.9-14.5-4.8L426.5,224.7z"/>
<path class="st8" d="M426.5,224c0,0,15.9,22.8,15.7,27.4s-2.6,0-2.6,0s-6.7-19.9-14.5-4.8L426.5,224z"/>
<path class="st4" d="M469.3,253.4l2.4-2.3c0,0,6.2,2.3,7.1,5.3s3.5,2.2,3.5,2.2c1.1,0.6,2.3,1,3.5,1.3c1,0,2.4,4.5,2.4,4.5
	s10.1,2.6,11,2.7s40.6,37.1,40.6,37.1s-22.9,3.5-26.4,2.1s-7.1-1.7-8.9-2.1s-41.7-8.9-41.7-8.9L469.3,253.4z"/>
<path class="st5" d="M474.3,233.4l4.2,5.3l18.5-10.5l-3.7-4.3C490,228.9,484.1,234.3,474.3,233.4z"/>
<path class="st4" d="M533.8,302.2l6,2c0,0,14.5-1.3,13.5-7.6s-7.3-17.8-7.3-17.8l-9-15.4c0,0-3.5-4.2-3.2-5.6s-4.2-3.6-4.2-3.6
	s-2.6-3.4-2.7-5s-14.7-13.9-14.7-13.9s-5-4.2-3.9-18.4H497c0,0-5.3,21.1-25.3,17.2l27.6,32.9L533.8,302.2z"/>
<path class="st5" d="M307.6,473.4c5.5,3.3,11.7,5,18.1,5c1.3-6.3,1.9-11,1.9-11H310C310,467.4,309,469.8,307.6,473.4z"/>
<path class="st4" d="M339.6,303l-5.1,4.3c0,0,1,2.4-0.7,3.6s0,11.1,0,11.1c0,1.3-0.5,2.6-1.4,3.6c-1.5,1.7,0,18.5,0,18.5
	c-0.4,0.8-1,1.6-1.8,2.1c-1,0.5-3.9,16.3-3.1,17.1s-12.2,38.8-12.2,38.8s0.3,6.6-1.5,7.7s-2.1,8.7-2.1,8.7s0.8,6.8-2.4,8
	s-3.9,24.2-3.9,24.2s-4.4,11.8-6.9,13.7c0,0,12.2,16.8,35.9,11.9c0,0,1-21.1,3.9-29.5l8.5-42.7c0,0,5.1-18.2,7.1-28.2
	s10.4-48.3,10.4-48.3V314L339.6,303z"/>
<ellipse class="st5" cx="314.5" cy="419.8" rx="1.1" ry="2.3"/>
<ellipse class="st5" cx="310" cy="439" rx="1.1" ry="2.3"/>
<ellipse class="st5" cx="306.6" cy="456.5" rx="1.1" ry="2.3"/>
<ellipse class="st5" cx="312.3" cy="429.5" rx="1.1" ry="2.3"/>
<ellipse class="st5" cx="307.8" cy="448.1" rx="1.1" ry="2.3"/>
<ellipse class="st8" cx="314.5" cy="419.1" rx="1.1" ry="2.3"/>
<ellipse class="st8" cx="310" cy="438.3" rx="1.1" ry="2.3"/>
<ellipse class="st8" cx="306.6" cy="455.9" rx="1.1" ry="2.3"/>
<ellipse class="st8" cx="312.3" cy="428.8" rx="1.1" ry="2.3"/>
<ellipse class="st8" cx="307.8" cy="447.5" rx="1.1" ry="2.3"/>
<path class="st5" d="M396.2,334c0,0-17.4-3-22.7,0S396.2,334,396.2,334z"/>
<path class="st5" d="M384.5,351c0,0-9-14.6-11.7-10S384.5,351,384.5,351z"/>
<path class="st5" d="M342.4,367.3c-0.5,0.5-19.6,22.4-19.5,23.8S342.4,367.3,342.4,367.3z"/>
<path class="st5" d="M514.4,289.7c-0.2,0.5-5.2,10.5-1.8,11.6S514.4,289.7,514.4,289.7z"/>
<path class="st5" d="M499.4,275.8c0,0-7.6,2.7-8.9,4S499.4,275.8,499.4,275.8z"/>
<path class="st5" d="M525,268.4c-3.5-0.2-16.1-3.5-16.6-2.4S525,268.4,525,268.4z"/>
<path class="st5" d="M393.1,207c-0.5,12.5-7.7,23.5-7.7,23.5l12,29.2v8.5c8.2,0.9,16.8-0.9,22.7-6.5c-4.7-1.5-7.6-6.2-9.8-10.7
	c-2.6-5.2-4.7-10.6-6.5-16.2c-1.2-3.7-1.8-8.6,1.5-10.7c1.5-1,3.5-1,4.9-2.1c1.8-1.5,1.9-4.2,1.3-6.4c-0.1-0.2-0.1-0.5-0.2-0.7
	c-1.5-4.3-4.9-7.8-7-11.9c-2.5-4.9-2.9-10.6-1.3-15.9c0.5-1.8,1.3-3.4,2.3-5c4.1-6.2,11.1-9.9,18.6-9.6c1.9,0.1,4.2,0.2,5.1-1.4
	c0.7-1.2,0.2-2.8,0.5-4.2c0.7-4.3,6-5.3,11-6.6c-6-8.7-15.8-13.9-26.4-14c-18.1,0-32.8,15.4-32.8,34.4
	C381.3,190.7,385.6,200.3,393.1,207z"/>
<path class="st10" d="M428.2,166.9c-0.2,1.4,0.3,3-0.4,4.2c-1,1.6-3.3,1.5-5.1,1.4c-11.6-0.5-21.4,8.5-21.9,20.1
	c-0.2,3.6,0.6,7.2,2.3,10.5c2.2,4.3,5.9,7.9,7.2,12.6c0.6,2.2,0.5,5-1.3,6.4c-1.4,1.1-3.4,1.2-4.9,2.1c-3.3,2.1-2.7,7-1.5,10.7
	c1.8,5.5,4,10.9,6.5,16.2c2.2,4.5,5,9.1,9.8,10.7c-6.9,6.4-17.3,7.8-26.5,5.9s-17.5-6.7-25.6-11.5c-3.3-1.9-6.9-4.1-8.5-7.6
	c-2.2-4.8-0.2-10.3,1.2-15.3c0.5-1.3,0.5-2.6,0.2-3.9c-0.6-1.5-2.3-2.3-3.8-3c-6.4-2.7,6-5,0-8.6s-11.5-8.4-14.2-14.8
	c-4.7-10.9-0.5-23.9,7-33.1s-1.3-15.6,8.3-22.7c6.1-4.5,12-9.3,18.8-12.7c13.9-6.7,30.1-6.8,44.1-0.3c6.9,3.3,12.6,8.5,19.4,12
	c3.3,1.7,10.7,3.9,8.8,8.7C445.1,162.2,429.5,159.3,428.2,166.9z"/>
<path class="st5" d="M361,432.3c0,0,24,21.9,18.9,21.9S361,432.3,361,432.3z"/>
<path class="st5" d="M357.5,440.8c0,0,15.9,15,11.2,16.3S357.5,440.8,357.5,440.8z"/>
<path class="st5" d="M351,404.6c0,0,1.3,0.9,3.9,2.4c4.3-4.3,10.6-11.3,12.7-16.9c3.2-8.8,1.9-34.4,1.9-34.4c-1.1,1.1-2.7,10-2.7,10
	l-3.8,14.3l-0.7,0.6c-6,4.9-6.8,13.5-8.5,15.7S351,404.6,351,404.6z"/>
<path class="st5" d="M388.2,266.6c9.2,2,19.6,0.6,26.5-5.9c-4.7-1.5-7.6-6.2-9.8-10.7c-2.6-5.2-4.7-10.6-6.5-16.2
	c-1.2-3.7-1.8-8.6,1.5-10.7c1.5-1,3.5-1,4.9-2.1c1.8-1.5,1.9-4.2,1.3-6.4c-1.3-4.7-5-8.3-7.2-12.6c-5.3-10.3-1.2-23,9.1-28.3
	c3.2-1.7,6.8-2.4,10.5-2.3c1.9,0.1,4.2,0.2,5.1-1.4c0.7-1.2,0.2-2.8,0.4-4.2c1.3-7.6,16.9-4.7,19.7-12c1.9-4.8-5.5-7-8.8-8.7
	c-6.8-3.5-12.5-8.8-19.4-12c-1.1-0.5-2.3-1-3.5-1.5c2.5,0.7,5,1.6,7.4,2.7c6.9,3.3,12.6,8.5,19.4,12c3.3,1.7,10.7,3.9,8.8,8.7
	c-2.8,7.3-18.4,4.4-19.7,12c-0.2,1.4,0.3,3-0.4,4.2c-1,1.6-3.3,1.5-5.1,1.4c-11.6-0.5-21.4,8.5-21.9,20.1c-0.2,3.6,0.6,7.2,2.3,10.5
	c2.2,4.3,5.9,7.9,7.2,12.6c0.6,2.2,0.5,5-1.3,6.4c-1.4,1.1-3.4,1.2-4.9,2.1c-3.3,2.1-2.7,7-1.5,10.7c1.8,5.5,3.9,10.9,6.5,16.2
	c2.2,4.5,5,9.1,9.8,10.7c-6.9,6.4-17.3,7.8-26.5,5.9c-2.5-0.5-4.9-1.2-7.3-2.1C385.9,266.1,387,266.3,388.2,266.6z"/>
</svg>
